<?xml version="1.0" standalone="no"?><!DOCTYPE svg PUBLIC "-//W3C//DTD SVG 1.1//EN" "http://www.w3.org/Graphics/SVG/1.1/DTD/svg11.dtd"><svg class="icon" width="200px" height="200.00px" viewBox="0 0 1024 1024" version="1.1" xmlns="http://www.w3.org/2000/svg"><path fill="#bfbfbf" d="M512 320c106.039 0 192 85.961 192 192s-85.961 192-192 192-192-85.961-192-192 85.961-192 192-192z m0 64c-70.692 0-128 57.308-128 128 0 70.692 57.308 128 128 128 70.692 0 128-57.308 128-128 0-70.692-57.308-128-128-128zM512 63.999c11.12 0 22.146 0.407 33.062 1.204 28.956 2.114 53.917 19.948 68.84 44.852 22.501 37.548 66.757 56.106 109.247 45.919l1.004-0.245c28.144-7.054 58.379-2.024 80.347 16.929a450.892 450.892 0 0 1 46.841 46.841c18.953 21.969 23.983 52.204 16.93 80.348l-0.246 1.003c-10.187 42.491 8.372 86.748 45.921 109.249 24.904 14.923 42.738 39.882 44.852 68.839A453.998 453.998 0 0 1 960 512c0 11.12-0.405 22.146-1.202 33.062l-0.11 1.355c-2.563 28.379-20.228 52.795-44.743 67.485l-0.883 0.536c-37.249 22.841-55.431 67.254-44.791 109.715 7.053 28.144 2.023 58.379-16.93 80.347l-1.358 1.566a450.824 450.824 0 0 1-45.483 45.275l-1.036 0.879c-21.53 17.939-50.665 22.84-77.99 16.374l-1.321-0.323c-42.795-10.724-87.573 7.83-110.251 45.674l-0.707 1.162c-14.997 24.296-39.629 41.61-68.133 43.691l-2.047 0.144A453.78 453.78 0 0 1 512 960c-10.426 0-20.768-0.356-31.016-1.058l-2.047-0.144c-28.504-2.081-53.135-19.394-68.132-43.69l-0.707-1.162c-22.678-37.845-67.456-56.399-110.252-45.675-28.144 7.053-58.379 2.023-80.347-16.93a450.824 450.824 0 0 1-45.483-45.275l-1.358-1.566c-18.657-21.625-23.822-51.261-17.252-79.026l0.322-1.321c10.64-42.461-7.542-86.874-44.79-109.715l-0.884-0.536c-24.515-14.69-42.18-39.106-44.742-67.485l-0.11-1.355A454.223 454.223 0 0 1 64 512c0-10.425 0.357-20.768 1.058-31.016l0.144-2.047c2.08-28.504 19.394-53.135 43.69-68.132l1.162-0.707c37.844-22.678 56.398-67.457 45.674-110.252-6.943-27.704-2.177-57.434 16.051-79.311l0.879-1.036a450.824 450.824 0 0 1 45.275-45.483l1.566-1.358c21.968-18.953 52.203-23.983 80.347-16.93 42.461 10.641 86.875-7.54 109.716-44.79l0.536-0.883c14.923-24.904 39.882-42.738 68.838-44.852A454.049 454.049 0 0 1 512 64zM512 128c-9.564 0-19.035 0.349-28.404 1.033-4.731 0.346-12.483 3.71-18.6 13.918-37.167 62.024-110.555 92.438-180.708 74.858-11.528-2.89-19.385 0.203-22.982 3.307a386.741 386.741 0 0 0-40.19 40.19c-3.104 3.597-6.197 11.455-3.308 22.983 17.579 70.153-12.834 143.541-74.858 180.707-10.209 6.118-13.573 13.869-13.918 18.599A390.605 390.605 0 0 0 128 512c0 9.564 0.349 19.036 1.032 28.404 0.346 4.73 3.709 12.482 13.918 18.6 62.023 37.166 92.438 110.554 74.858 180.707-2.889 11.528 0.205 19.385 3.308 22.982a386.741 386.741 0 0 0 40.19 40.19c3.598 3.104 11.455 6.197 22.983 3.308 70.152-17.579 143.54 12.835 180.707 74.859 6.117 10.208 13.869 13.573 18.6 13.918 9.368 0.684 18.84 1.032 28.404 1.032 9.563 0 19.035-0.348 28.403-1.032 4.731-0.345 12.483-3.71 18.601-13.919 37.167-62.023 110.554-92.437 180.706-74.858 11.528 2.889 19.385-0.204 22.983-3.308a386.643 386.643 0 0 0 40.19-40.19c3.104-3.597 6.197-11.455 3.308-22.983-17.579-70.152 12.835-143.539 74.858-180.706 10.209-6.118 13.573-13.87 13.919-18.601A390.005 390.005 0 0 0 896 512c0-9.563-0.348-19.035-1.032-28.403-0.345-4.731-3.71-12.483-13.918-18.6-62.025-37.167-92.438-110.555-74.859-180.707 2.889-11.528-0.204-19.386-3.308-22.984a386.839 386.839 0 0 0-40.19-40.19c-3.597-3.103-11.454-6.197-22.982-3.307-70.152 17.58-143.54-12.834-180.707-74.857-6.118-10.209-13.871-13.573-18.602-13.919A389.975 389.975 0 0 0 512 128z" /></svg>